# xmcd CD database file
#
# Track frame offsets:
#	150
#	11272
#	26270
#	37833
#	53724
#	62356
#	73165
#	84530
#	97500
#	112350
#	123923
#	138767
#	152342
#	169115
#
# Disc length: 2462 seconds
#
# Revision: 3
# Processed by: cddbd v1.5.2PL0 Copyright (c) Steve Scherf et al.
# Submitted via: CDex 1.70beta2
#
DISCID=9c099c0e
DTITLE=Detlev Jöcker - Ein kleiner Käfer geht spazieren
DYEAR=1900
DGENRE=Kinder
TTITLE0=Guten Morgen,du musst aufstehen....... Das wird ein schöner Tag
TTITLE1=Ein kleiner Käfer geht spazieren....... Krabbeln und Bewegen
TTITLE2=Eine kleine Spinne........ Wer macht mit?
TTITLE3=Ich nehme meinen Zeigefinger....... Malspiele auf dem Bauch
TTITLE4=Tatü, hier kommt die Feuerwehr........ und alle hinterher
TTITLE5=Seht den Welleneiter........... Rauf und runter
TTITLE6=Lecker,lecker,lecker.......Schmecken will geübt sein
TTITLE7=Mein kleiner bruder Julian................. Mit den Füßen spüren
TTITLE8=Alles durcheinander.......... Was passt hier zusammen?
TTITLE9=Arabella Wirbelwind.............. Im Kreis sich drehn
TTITLE10=1,2,3,4 Beine................ Wie Tiere sich bewegen
TTITLE11=Schnuppi Schnupperhase.............. Hmmh! Was riecht denn  da?
TTITLE12=Ein Vogel sitzt in seinem Nest........... Zuhause ist es am schönsten
TTITLE13=Süße Träume.......... Gute Nacht, mein Kind
EXTD=
EXTT0=
EXTT1=
EXTT2=
EXTT3=
EXTT4=
EXTT5=
EXTT6=
EXTT7=
EXTT8=
EXTT9=
EXTT10=
EXTT11=
EXTT12=
EXTT13=
PLAYORDER=
